# xmcd
#
# Track frame offsets:
#  150
#  15115
#  27776
#  43859
#  57377
#  70834
#  81147
#  93302
#  105311
#  117401
#  130327
#  143843
#  156012
#  168559
#
# Disc length: 2405 seconds
#
# Revision: 0
# Processed by: cddbd v1.5.1PL2 Copyright (c) Steve Scherf et al.
# Submitted via: Collectorz.com Music Collector 6.9
#
DISCID=af09630e
DTITLE=Paul Davey - Tannabah
DYEAR=2001
DGENRE=Country
TTITLE0=Matilda And Billy
TTITLE1=Breaking Day
TTITLE2=Hotel Blues
TTITLE3=Tannabah
TTITLE4=The Answer Is You
TTITLE5=My Home Australia
TTITLE6=Live Your Dreams
TTITLE7=Train To Nowhere
TTITLE8=Life We're Living In
TTITLE9=The Good Old Days
TTITLE10=Mountain In The Sky
TTITLE11=Focus On The Track
TTITLE12=Without You
TTITLE13=Aussie Dream
EXTD=
EXTT0=
EXTT1=
EXTT2=
EXTT3=
EXTT4=
EXTT5=
EXTT6=
EXTT7=
EXTT8=
EXTT9=
EXTT10=
EXTT11=
EXTT12=
EXTT13=
PLAYORDER=
